<?xml version="1.0" encoding="UTF-8"?>
<svg id="Ebene_1" data-name="Ebene 1" xmlns="http://www.w3.org/2000/svg" xmlns:xlink="http://www.w3.org/1999/xlink" viewBox="0 0 800 400">
  <defs>
    <style>
      .cls-1 {
        fill: url(#Unbenannter_Verlauf_30-2);
      }

      .cls-1, .cls-2, .cls-3, .cls-4, .cls-5, .cls-6, .cls-7, .cls-8, .cls-9, .cls-10, .cls-11 {
        stroke-width: 0px;
      }

      .cls-2 {
        fill: url(#Unbenannter_Verlauf_105-2);
      }

      .cls-12 {
        opacity: .1;
      }

      .cls-3 {
        fill: url(#Unbenannter_Verlauf_105);
      }

      .cls-4 {
        fill: #ccc;
      }

      .cls-5 {
        fill: #fdf2d7;
      }

      .cls-6 {
        fill: #000;
      }

      .cls-7 {
        fill: #e73747;
      }

      .cls-8 {
        fill: url(#Unbenannter_Verlauf_54);
      }

      .cls-9 {
        fill: url(#Unbenannter_Verlauf_30);
      }

      .cls-10 {
        fill: url(#Unbenannter_Verlauf_42);
      }

      .cls-11 {
        fill: #ebebeb;
      }
    </style>
    <linearGradient id="Unbenannter_Verlauf_105" data-name="Unbenannter Verlauf 105" x1="698.56" y1="97.17" x2="746.83" y2="180.76" gradientUnits="userSpaceOnUse">
      <stop offset="0" stop-color="#fff"/>
      <stop offset="1" stop-color="#fbfbfb"/>
    </linearGradient>
    <linearGradient id="Unbenannter_Verlauf_30" data-name="Unbenannter Verlauf 30" x1="657.46" y1="118.95" x2="687.09" y2="170.26" gradientUnits="userSpaceOnUse">
      <stop offset="0" stop-color="#e74856"/>
      <stop offset=".01" stop-color="#e74755"/>
      <stop offset=".51" stop-color="#e73b4a"/>
      <stop offset="1" stop-color="#e73747"/>
    </linearGradient>
    <linearGradient id="Unbenannter_Verlauf_54" data-name="Unbenannter Verlauf 54" x1="623.85" y1="182.25" x2="651.93" y2="230.9" gradientUnits="userSpaceOnUse">
      <stop offset="0" stop-color="#27a2da"/>
      <stop offset=".02" stop-color="#25a1d9"/>
      <stop offset=".36" stop-color="#109bd9"/>
      <stop offset=".68" stop-color="#0498d9"/>
      <stop offset="1" stop-color="#0097d9"/>
    </linearGradient>
    <linearGradient id="Unbenannter_Verlauf_42" data-name="Unbenannter Verlauf 42" x1="629.33" y1="151.1" x2="653.72" y2="193.35" gradientUnits="userSpaceOnUse">
      <stop offset="0" stop-color="#ffde64"/>
      <stop offset=".33" stop-color="#ffda50"/>
      <stop offset=".67" stop-color="#ffd744"/>
      <stop offset="1" stop-color="#ffd740"/>
    </linearGradient>
    <linearGradient id="Unbenannter_Verlauf_105-2" data-name="Unbenannter Verlauf 105" x1="612.14" y1="88.03" x2="652" y2="157.07" xlink:href="#Unbenannter_Verlauf_105"/>
    <linearGradient id="Unbenannter_Verlauf_30-2" data-name="Unbenannter Verlauf 30" x1="590.32" y1="95.45" x2="659.36" y2="215.03" xlink:href="#Unbenannter_Verlauf_30"/>
  </defs>
  <g>
    <path class="cls-7" d="M145.26,301.58h8.86v-53.46h-8.86v-10.32h33.97c5.52,0,9.38.42,13.23,1.98,6.67,2.61,11.25,8.86,11.25,17.09,0,6.88-3.33,12.82-9.07,15.84v.21c8.23,2.5,11.98,9.69,11.98,17.51,0,10.32-6.67,17.71-14.69,20.11-3.65,1.04-7.09,1.25-11.05,1.25h-35.64v-10.21ZM180.8,268.03c5.84,0,9.07-4.06,9.07-9.69,0-3.65-1.35-6.88-4.27-8.44-1.77-.83-3.75-1.15-6.36-1.15h-11.46v19.28h13.03ZM181.53,300.85c1.77,0,3.75-.21,5.31-.83,3.75-1.56,5.94-5.73,5.94-10.42,0-6.36-3.96-10.73-10.73-10.73h-14.28v21.99h13.75Z"/>
    <path class="cls-7" d="M213.5,301.58h8.86v-53.46h-8.86v-10.32h54.91v19.07h-11.67v-8.13h-20.74v20.32h24.38v10.94h-24.38v20.84h22.3v-8.34h11.67v19.28h-56.48v-10.21Z"/>
    <path class="cls-7" d="M275.67,301.58h6.77l22.2-63.77h15.53l22.2,63.77h6.77v10.21h-27.82v-10.21h7.29l-4.58-13.86h-23.34l-4.58,13.86h7.29v10.21h-27.72v-10.21ZM320.89,277.1l-6.98-20.94c-1.15-3.65-1.35-6.46-1.35-6.46h-.31s-.31,2.81-1.35,6.46l-7.09,20.94h17.09Z"/>
    <path class="cls-7" d="M387.5,236.56c8.96,0,28.86,3.12,28.86,14.8v10h-12.4v-5.73c0-5.52-9.79-7.4-15.84-7.4-14.28,0-24.7,10-24.7,25.63,0,16.67,10.84,27.51,25.43,27.51,4.48,0,16.05-1.46,16.05-7.29v-5.73h12.4v10.11c0,11.05-19.07,14.59-29.28,14.59-22.4,0-38.66-16.98-38.66-38.55s16.67-37.93,38.14-37.93Z"/>
    <path class="cls-7" d="M424.86,301.58h8.86v-53.46h-8.86v-10.32h31.47v10.32h-8.96v21.36h33.66v-21.36h-8.96v-10.32h31.47v10.32h-8.86v53.46h8.86v10.21h-31.47v-10.21h8.96v-21.15h-33.66v21.15h8.96v10.21h-31.47v-10.21Z"/>
  </g>
  <g>
    <path class="cls-6" d="M78.32,220.81h7.64v-52.78h-8.06v-3.31h11.62v24.44c0,1.95-.34,3.48-.34,3.48h.17c1.44-3.99,7.38-11.96,17.99-11.96s14,6.53,14,16.55v23.59h7.64v3.31h-11.2v-25.63c0-7.38-.93-14.34-10.44-14.34s-17.82,8.06-17.82,19.26v17.4h7.64v3.31h-18.84v-3.31Z"/>
    <path class="cls-6" d="M159.37,198.24h2.8v-1.87c0-9.08-4.67-12.3-11.29-12.3-7.47,0-12.47,4.16-12.47,4.16l-2.04-2.89s5.35-4.67,14.6-4.67c9.76,0,14.76,5.26,14.76,15.61v22.66c0,1.27.68,1.87,1.87,1.87h5.09v3.31h-5.6c-3.48,0-4.92-1.44-4.92-4.67v-.93c0-2.29.34-3.82.34-3.82h-.17s-3.73,10.44-15.02,10.44c-6.79,0-14.26-3.82-14.26-12.56,0-14.09,19.01-14.34,26.3-14.34ZM147.32,221.83c9.76,0,14.85-9.59,14.85-17.99v-2.29h-2.72c-3.14,0-22.66-.76-22.66,10.61,0,4.92,3.65,9.67,10.52,9.67Z"/>
    <path class="cls-6" d="M197.97,180.67c4.58,0,14.93,1.95,14.93,8.82v4.07h-3.56v-3.31c0-4.16-7.3-6.11-11.37-6.11-9.93,0-18.16,7.38-18.16,18.84s8.23,18.67,18.16,18.67c9.33,0,14.17-6.11,14.17-6.11l1.87,2.97s-5.52,6.62-16.04,6.62c-11.96,0-21.89-8.66-21.89-22.15s10.1-22.32,21.89-22.32Z"/>
    <path class="cls-6" d="M219.1,220.81h7.64v-52.78h-8.06v-3.31h11.62v33.69h7.13l11.46-13.41h-6.62v-3.31h17.23v3.31h-6.02l-12.73,14.68v.17c.08,0,1.1.42,2.8,3.22l9.5,15.87c.93,1.53,1.53,1.87,4.07,1.87h3.14v3.31h-3.31c-4.58,0-5.52-.85-7.72-4.5l-9.67-16.04c-1.02-1.61-2.04-1.87-4.33-1.87h-4.92v19.09h7.64v3.31h-18.84v-3.31Z"/>
    <path class="cls-6" d="M265.08,211.48h3.56v3.22c0,4.92,7.21,6.96,12.3,6.96,5.85,0,11.12-2.71,11.12-7.72,0-5.52-6.02-7.55-12.22-9.93-6.45-2.46-13.07-5.26-13.07-12.39s6.96-10.95,13.75-10.95c5.52,0,13.58,2.46,13.58,8.06v4.67h-3.56v-3.48c0-3.56-4.92-5.77-9.84-5.77-5.26,0-10.18,2.46-10.18,7.21,0,5.18,5.69,7.3,11.62,9.59,6.62,2.55,13.66,5.35,13.66,12.64,0,6.79-5.94,11.54-15.19,11.54-7.89,0-15.53-3.65-15.53-10.01v-3.65Z"/>
    <path class="cls-6" d="M347.38,180.67c12.13,0,21.98,9.59,21.98,21.98s-9.84,22.49-21.98,22.49-21.98-9.84-21.98-22.49,9.84-21.98,21.98-21.98ZM347.38,221.66c10.1,0,18.24-8.23,18.24-19.01s-8.15-18.5-18.24-18.5-18.24,7.98-18.24,18.5,8.15,19.01,18.24,19.01Z"/>
    <path class="cls-6" d="M373.75,220.81h7.64v-33.94c0-1.27-.68-1.87-1.87-1.87h-6.19v-3.31h6.7c3.48,0,4.92,1.44,4.92,4.67v2.8c0,1.95-.34,3.48-.34,3.48h.17c1.44-3.99,7.38-11.96,17.99-11.96s14,6.53,14,16.55v23.59h7.64v3.31h-11.2v-25.63c0-7.38-.93-14.34-10.44-14.34-10.1,0-17.82,8.66-17.82,18.92v17.73h7.64v3.31h-18.84v-3.31Z"/>
    <path class="cls-6" d="M456.74,185h-8.06v-3.31h8.06v-11.79h3.56v11.79h11.12v3.31h-11.12v23.5c0,11.2,6.7,12.64,10.1,12.64,1.19,0,1.95-.17,1.95-.17v3.31s-.85.17-2.12.17c-4.41,0-13.49-1.61-13.49-15.7v-23.76Z"/>
    <path class="cls-6" d="M477.11,220.81h7.64v-52.78h-8.06v-3.31h11.62v24.44c0,1.95-.34,3.48-.34,3.48h.17c1.44-3.99,7.38-11.96,17.99-11.96s14,6.53,14,16.55v23.59h7.64v3.31h-11.2v-25.63c0-7.38-.93-14.34-10.44-14.34s-17.82,8.06-17.82,19.26v17.4h7.64v3.31h-18.84v-3.31Z"/>
    <path class="cls-6" d="M551.3,180.67c11.54,0,17.31,9.08,17.31,19.35,0,.93-.17,2.29-.17,2.29h-34.03c0,12.3,8.32,19.35,18.16,19.35,8.15,0,13.15-5.35,13.15-5.35l1.95,2.97s-5.94,5.85-15.1,5.85c-11.96,0-21.89-8.66-21.89-22.15,0-14.34,9.76-22.32,20.62-22.32ZM564.88,199c-.42-10.35-6.62-15.02-13.66-15.02-7.81,0-15.02,5.09-16.55,15.02h30.21Z"/>
  </g>
  <g>
    <g class="cls-12">
      <g>
        <path class="cls-6" d="M668.15,55.81c31.31,7.87,57.71,24.76,74.65,47.84,17.24,23.48,23.6,51.27,18.58,80.72-3.91-9.19-13.43-16.42-25.9-19.24-2.36-.53-4.76-.81-7.16-.84-3.31-.05-6.61.36-9.77,1.19-6.06,1.58-11.61,4.66-15.82,8.92.31-2.14.57-4.29.76-6.45.21-2.26.35-4.55.41-6.85,1.01-32.18-10.97-67.5-35.75-105.3Z"/>
        <path class="cls-6" d="M700.83,160.99l3.07.12c-.07,2.3-.2,4.58-.41,6.85l-3.06-.28c.2-2.21.33-4.44.4-6.68Z"/>
        <path class="cls-6" d="M641.56,163.05l23.84-105.78c24.53,37.34,36.39,72.12,35.43,103.72-.08,2.24-.2,4.47-.4,6.68-.16,1.68-.35,3.36-.57,5.02-4.07-10.25-13.75-18.68-25.27-21.28-3.25-.73-6.6-.8-9.91-.36-8.77,1.17-17.29,6.01-23.13,11.99Z"/>
        <path class="cls-6" d="M664.68,151.06c3.31-.45,6.66-.38,9.91.36,11.51,2.59,21.2,11.03,25.27,21.28.22-1.66.41-3.34.57-5.02l3.06.28c-.19,2.16-.45,4.31-.76,6.45,4.21-4.26,9.77-7.35,15.82-8.92l.74,2.99c-7.38,1.92-13.93,6.29-17.8,12.42-.35.55-1.02.83-1.66.69s-1.12-.68-1.2-1.33c-1.43-11.85-12.05-22.95-24.73-25.81-2.9-.64-5.88-.72-8.83-.33l-.39-3.05Z"/>
        <polygon class="cls-6" points="660.99 183.74 660.13 189.05 610.61 177.9 612.11 172.73 660.99 183.74"/>
        <path class="cls-6" d="M660.07,192.22c.36.09.59.44.51.8l-4.17,18.5c-.06.24-.2.37-.3.42-.08.06-.27.14-.51.09l-50.76-11.43c-.24-.06-.37-.21-.42-.3-.06-.09-.14-.28-.09-.51l4.17-18.5c.04-.24.2-.37.3-.42.06-.05.2-.11.36-.11.04,0,.09.01.14.02l18.77,4.22,31.99,7.21Z"/>
        <polygon class="cls-6" points="636.66 210.95 637.89 211.23 639.54 211.6 636.68 224.26 634.27 223.72 633.8 223.61 636.66 210.95"/>
        <polygon class="cls-6" points="628.2 222.35 631.06 209.69 633.63 210.27 630.78 222.93 628.2 222.35"/>
        <path class="cls-6" d="M632.86,151.42c2.47,3.44,4.39,7.21,5.67,10.95l3.02.68c5.83-5.98,14.35-10.82,23.13-11.99l.39,3.05c-.44.06-.87.12-1.31.2l-1.67,13.65c-.07.38-.05.68.03.95l2.22,7.47c.27.91.41,1.87.39,2.81l-3.1.08c.01-.67-.08-1.36-.28-2l-2.21-7.47c-.23-.75-.27-1.55-.12-2.31l1.52-12.43c-8.66,2.48-16.54,8.54-20.67,15.06-.35.56-1.01.83-1.66.69-.64-.14-1.12-.68-1.2-1.33-.64-5.26-2.97-11.09-6.56-16.15l2.4-1.9Z"/>
        <polygon class="cls-6" points="625.46 208.43 628.03 209 625.18 221.67 622.6 221.09 625.46 208.43"/>
        <path class="cls-6" d="M637.02,169.47c.08.65.56,1.19,1.2,1.33.65.14,1.31-.13,1.66-.69,4.12-6.52,12.01-12.58,20.67-15.06l-1.52,12.43c-.15.76-.11,1.56.12,2.31l2.21,7.47c.2.64.29,1.33.28,2,0,.33-.03.65-.09.98l-.06.42-48.5-10.93.12-.4c.28-.97.78-1.87,1.46-2.62l5.2-5.8c.53-.58.91-1.29,1.07-1.95l3.99-11.97c2.11,1.86,4.01,4,5.64,6.32,3.59,5.06,5.92,10.89,6.56,16.15Z"/>
        <polygon class="cls-6" points="622.42 207.74 619.57 220.41 616.7 219.76 619.55 207.1 622.42 207.74"/>
        <path class="cls-6" d="M624.92,229.85c.84.19,1.36,1.01,1.17,1.85l-3.08,13.71c-.17.73-.82,1.23-1.54,1.22-.1,0-.21-.01-.32-.05-.84-.19-1.36-1.01-1.17-1.85l3.09-13.71c.19-.85,1.02-1.37,1.85-1.17Z"/>
        <path class="cls-6" d="M621.15,246.58c.11.03.22.04.32.05.72.01,1.37-.49,1.54-1.22l3.08-13.71c.19-.84-.34-1.66-1.17-1.85-.82-.2-1.66.33-1.85,1.17l-3.09,13.71c-.19.84.34,1.66,1.17,1.85ZM612.06,309.32l-9.61-2.16-1.27-.29,18.75-83.2,6.08,1.36,6.08,1.37-18.75,83.2-1.27-.28h0Z"/>
        <path class="cls-6" d="M609.87,312.01l-1.05,4.66c-.02.08-.04.15-.08.23l-2.27,4.79c-1.4-.22-2.83-.34-4.27-.41v-5.85c0-.08,0-.17.03-.24l1.05-4.66,6.58,1.48Z"/>
        <path class="cls-6" d="M664.73,179.19l-3.1.08c0,.33-.03.65-.09.98l-.06.42-48.5-10.93.12-.4c.28-.97.78-1.87,1.46-2.62l5.2-5.8c.53-.58.91-1.29,1.07-1.95l-2.94-.98-.03.09c-.08.28-.22.55-.42.76l-5.21,5.8c-.98,1.09-1.71,2.42-2.12,3.82l-2.84,9.71s-.1.05-.15.08c-.86.54-1.45,1.38-1.67,2.37l-4.17,18.49c-.45,2.03.82,4.06,2.86,4.51l12.36,2.78-3.19,14.18c-.19.84.34,1.66,1.17,1.85l2.4.54-19.09,84.73c-.09.4-.02.82.2,1.16.22.36.57.6.97.69l1.27.29-1.05,4.66c-.07.3-.1.61-.1.92v5.85c-.27.01-.53.03-.79.05.05.14.1.29.13.44.53.44,1.03.99,1.58,1.64.26.3.43.62.54.95.24,0,.48,0,.72,0,2.15.03,4.26.27,6.32.68.03-.05.05-.1.09-.15.81-1.28,1.8-2,2.88-2.31-.32-.09-.65-.18-.97-.26l1.93-4.08h0c.13-.29.23-.58.3-.88l1.04-4.66,1.28.29c.1.02.21.03.31.04.3,0,.6-.08.85-.25.36-.21.6-.56.69-.96l19.09-84.73,2.4.54c.1.02.21.03.31.04.3,0,.6-.07.85-.24.36-.22.6-.57.69-.97l3.19-14.17,12.36,2.78c.27.06.53.09.79.09.72.01,1.44-.2,2.07-.59.86-.54,1.45-1.38,1.67-2.37l4.17-18.49c.24-1.08-.02-2.14-.6-2.99l1.6-9.98c.08-.51.13-1.03.12-1.55ZM616.7,219.76l2.85-12.67,2.88.64-2.85,12.67-2.88-.64ZM608.82,316.67c-.02.08-.04.15-.08.23l-2.27,4.79c-1.4-.22-2.83-.34-4.27-.41v-5.85c0-.08,0-.17.03-.24l1.05-4.66,6.58,1.48-1.05,4.66ZM613.33,309.61l-1.27-.28h0s-9.61-2.17-9.61-2.17l-1.27-.29,18.75-83.2,6.08,1.36,6.08,1.37-18.75,83.2ZM622.6,221.09l2.86-12.67,2.57.58-2.85,12.67-2.58-.58ZM630.78,222.93l-2.58-.59,2.86-12.66,2.57.58-2.85,12.67ZM636.68,224.26l-2.4-.54-.47-.11,2.86-12.66,1.23.28,1.65.37-2.86,12.67ZM660.58,193.02l-4.17,18.5c-.06.24-.2.37-.3.42-.08.06-.27.14-.51.09l-50.76-11.43c-.24-.06-.37-.21-.42-.3-.06-.09-.14-.28-.09-.51l4.17-18.5c.04-.24.2-.37.3-.42.06-.05.2-.11.36-.11.04,0,.09.01.14.02l18.77,4.22,31.99,7.21c.36.09.59.44.51.8ZM660.13,189.05l-49.52-11.15,1.51-5.17,48.87,11.01-.86,5.32Z"/>
        <path class="cls-6" d="M581.3,146.4c9.38-33.75,36.62-63.96,81.08-89.89l-23.85,105.86c-1.28-3.75-3.2-7.51-5.67-10.95-4.7-6.58-11.37-11.97-19.17-13.73-11.73-2.64-24.33.97-32.39,8.71Z"/>
        <path class="cls-6" d="M552.12,126.99c-14.04-3.16-26.9.81-32.77,10.12-.4.64-1.2.89-1.9.6s-1.09-1.03-.93-1.77c7.37-32.74,26.25-58.11,54.57-73.38,26.47-14.28,59.23-18.17,92.42-11.02l1.76-7.83c.19-.84,1.02-1.36,1.86-1.17s1.36,1.02,1.17,1.86l-1.76,7.83c33.04,7.78,60.97,25.34,78.77,49.59,19.03,25.94,25.2,56.96,17.81,89.7-.16.71-.8,1.22-1.53,1.21h-.06c-.75-.04-1.37-.62-1.46-1.37-1.32-10.93-11.24-20.03-25.27-23.19-5.17-1.16-10.53-.99-15.51.31l-.74-2.99c3.16-.83,6.46-1.24,9.77-1.19,2.4.04,4.8.31,7.16.84,12.47,2.82,21.99,10.05,25.9,19.24,5.03-29.44-1.34-57.23-18.58-80.72-16.94-23.08-43.33-39.97-74.65-47.84,24.78,37.8,36.76,73.11,35.75,105.3l-3.07-.12c.96-31.59-10.91-66.38-35.43-103.72l-23.84,105.78-3.02-.68,23.85-105.86c-44.46,25.93-71.71,56.14-81.08,89.89,8.06-7.74,20.66-11.35,32.39-8.71,7.8,1.76,14.47,7.15,19.17,13.73l-2.4,1.9c-1.63-2.31-3.52-4.45-5.64-6.32l-3.99,11.97-2.94-.98,4.34-13.05c-2.8-1.99-5.9-3.47-9.23-4.23-12.71-2.86-27.11,2.58-33.49,12.68-.35.55-1.02.83-1.66.69s-1.12-.68-1.2-1.33c-1.45-12.05-11.78-22.88-24.55-25.77ZM521.16,130.24c7.48-6.63,19.17-9.09,31.64-6.27,11.73,2.64,21.56,11.44,25.4,22.04,9.45-34.62,37.07-65.52,82.21-91.94-31.62-6.29-62.67-2.35-87.85,11.23-25.64,13.82-43.31,36.18-51.4,64.95Z"/>
        <path class="cls-6" d="M572.55,65.29c25.18-13.57,56.23-17.52,87.85-11.23-45.14,26.43-72.76,57.32-82.21,91.94-3.84-10.6-13.67-19.4-25.4-22.04-12.47-2.82-24.16-.35-31.64,6.27,8.09-28.76,25.76-51.13,51.4-64.95Z"/>
      </g>
    </g>
    <g>
      <path class="cls-3" d="M664.45,53.29c31.43,7.4,58.08,23.89,75.36,46.71,17.59,23.22,24.37,50.91,19.79,80.43-4.05-9.13-13.67-16.22-26.18-18.84-2.37-.5-4.77-.73-7.17-.73-3.31,0-6.6.46-9.75,1.33-6.03,1.67-11.54,4.83-15.69,9.16.28-2.14.51-4.29.66-6.46.18-2.27.28-4.55.31-6.85.53-32.19-11.98-67.33-37.33-104.75Z"/>
      <path class="cls-6" d="M698.7,157.96l3.07.07c-.03,2.3-.13,4.58-.31,6.85l-3.06-.24c.17-2.21.26-4.44.3-6.69Z"/>
      <path class="cls-9" d="M639.47,160.91l22.25-106.12c25.08,36.96,37.47,71.57,36.99,103.17-.04,2.25-.13,4.47-.3,6.69-.13,1.69-.3,3.36-.5,5.03-4.22-10.18-14.03-18.47-25.58-20.89-3.26-.68-6.61-.7-9.91-.21-8.75,1.3-17.2,6.27-22.94,12.34Z"/>
      <path class="cls-6" d="M662.41,148.58c3.3-.5,6.65-.48,9.91.21,11.55,2.42,21.36,10.71,25.58,20.89.2-1.67.36-3.34.5-5.03l3.06.24c-.16,2.16-.38,4.32-.66,6.46,4.15-4.33,9.66-7.49,15.69-9.16l.79,2.98c-7.35,2.03-13.84,6.5-17.61,12.69-.34.56-1,.85-1.65.71s-1.13-.66-1.22-1.31c-1.6-11.83-12.4-22.77-25.12-25.44-2.91-.6-5.89-.63-8.84-.2l-.43-3.04Z"/>
      <polygon class="cls-4" points="659.2 181.31 658.43 186.64 608.74 176.23 610.17 171.04 659.2 181.31"/>
      <path class="cls-8" d="M658.42,189.81c.36.08.6.43.52.8l-3.89,18.57c-.05.24-.2.37-.29.42-.08.06-.27.14-.51.09l-50.93-10.67c-.24-.05-.37-.21-.42-.29-.06-.09-.14-.28-.09-.51l3.89-18.57c.04-.24.2-.37.29-.42.06-.05.2-.11.36-.11.04,0,.09.01.14.02l18.83,3.94,32.09,6.73Z"/>
      <polygon class="cls-11" points="635.29 208.89 636.52 209.15 638.17 209.49 635.5 222.2 633.09 221.69 632.62 221.59 635.29 208.89"/>
      <polygon class="cls-11" points="627 220.41 629.67 207.71 632.24 208.25 629.58 220.96 627 220.41"/>
      <path class="cls-6" d="M630.6,149.42c2.53,3.4,4.5,7.14,5.84,10.87l3.03.63c5.74-6.06,14.19-11.03,22.94-12.34l.43,3.04c-.43.06-.87.13-1.3.22l-1.47,13.67c-.06.38-.04.68.04.95l2.33,7.44c.28.91.43,1.86.43,2.8l-3.09.12c0-.67-.1-1.36-.31-2l-2.32-7.44c-.24-.75-.29-1.54-.16-2.31l1.33-12.45c-8.62,2.61-16.41,8.79-20.44,15.37-.34.57-.99.85-1.65.71-.64-.13-1.13-.66-1.22-1.31-.71-5.25-3.14-11.04-6.8-16.05l2.37-1.94Z"/>
      <polygon class="cls-11" points="624.05 206.53 626.62 207.07 623.97 219.78 621.38 219.24 624.05 206.53"/>
      <path class="cls-10" d="M635.03,167.4c.09.65.58,1.18,1.22,1.31.65.13,1.3-.14,1.65-.71,4.03-6.58,11.82-12.76,20.44-15.37l-1.33,12.45c-.13.77-.08,1.56.16,2.31l2.32,7.44c.21.64.31,1.32.31,2,0,.33-.02.65-.07.98l-.05.42-48.66-10.2.11-.4c.27-.97.76-1.88,1.42-2.64l5.11-5.88c.52-.59.89-1.3,1.05-1.97l3.81-12.02c2.14,1.83,4.07,3.94,5.73,6.23,3.66,5.01,6.08,10.8,6.8,16.05Z"/>
      <polygon class="cls-11" points="621.01 205.89 618.35 218.6 615.46 218 618.12 205.29 621.01 205.89"/>
      <path class="cls-6" d="M623.83,227.96c.84.18,1.38.99,1.2,1.83l-2.88,13.75c-.16.73-.8,1.24-1.52,1.24-.1,0-.21-.01-.32-.04-.84-.18-1.38-.99-1.2-1.83l2.89-13.75c.18-.85,1-1.39,1.83-1.2Z"/>
      <path class="cls-5" d="M573.63,337.33c6.44-9.11,16.82-14.52,27.99-14.52s21.56,5.41,27.99,14.52h-55.99Z"/>
      <path class="cls-4" d="M620.31,244.75c.11.03.22.04.32.04.72,0,1.37-.51,1.52-1.24l2.88-13.75c.18-.84-.36-1.66-1.2-1.83-.83-.19-1.66.35-1.83,1.2l-2.89,13.75c-.18.84.36,1.66,1.2,1.83ZM612.17,307.61l-9.64-2.02-1.27-.27,17.5-83.47,6.1,1.27,6.1,1.28-17.5,83.47-1.27-.26h0Z"/>
      <path class="cls-11" d="M610.02,310.34l-.98,4.68c-.02.08-.04.16-.07.23l-2.19,4.82c-1.41-.2-2.84-.3-4.27-.34l-.08-5.85c0-.08,0-.17.02-.24l.98-4.68,6.6,1.38Z"/>
      <path class="cls-6" d="M615.46,218l2.89.6,2.66-12.71-2.89-.6-2.66,12.71ZM602.41,313.88l.08,5.85c1.44.04,2.87.14,4.27.34l2.19-4.82c.03-.07.05-.14.07-.23l.98-4.68-6.6-1.38-.98,4.68c-.02.07-.02.16-.02.24ZM630.94,224.41l-6.1-1.28-6.1-1.27-17.5,83.47,1.27.27,9.64,2.02h0s1.27.27,1.27.27l17.5-83.47ZM608.74,176.23l49.68,10.41.78-5.33-49.03-10.28-1.43,5.19ZM627,220.41l2.59.55,2.66-12.71-2.58-.54-2.67,12.7ZM603.32,199.02l50.93,10.67c.24.05.42-.03.51-.09.09-.05.24-.19.29-.42l3.89-18.57c.08-.36-.16-.71-.52-.8l-32.09-6.73-18.83-3.94c-.05-.01-.1-.02-.14-.02-.17,0-.3.06-.36.11-.09.05-.25.19-.29.42l-3.89,18.57c-.05.23.03.41.09.51.05.08.19.24.42.29ZM626.62,207.07l-2.58-.54-2.67,12.71,2.59.54,2.66-12.71ZM636.39,225.55l-2.41-.51-17.82,85c-.08.4-.32.76-.67.97-.25.17-.55.26-.85.26-.1,0-.21-.01-.31-.03l-1.28-.27-.97,4.68c-.07.3-.17.59-.29.87h0s-1.87,4.12-1.87,4.12c9.28,2.1,17.51,7.68,22.9,15.82.47.71.28,1.68-.44,2.15-.26.18-.56.26-.85.26-.51,0-1-.25-1.29-.69-.2-.3-.4-.57-.61-.86-6.44-9.11-16.82-14.52-27.99-14.52s-21.56,5.41-27.99,14.52c-.21.29-.41.56-.61.86-.47.71-1.44.91-2.15.43s-.91-1.44-.43-2.15c6.54-9.87,17.24-16,28.96-16.7l-.08-5.85c-.01-.31.02-.62.08-.92l.98-4.68-1.27-.27c-.4-.08-.76-.32-.98-.67-.23-.34-.3-.76-.22-1.16l17.82-85-2.41-.51c-.84-.18-1.38-.99-1.2-1.83l2.98-14.23-12.4-2.6c-2.05-.42-3.35-2.43-2.93-4.47l3.89-18.55c.21-.99.79-1.84,1.64-2.39.04-.03.1-.05.14-.08l2.69-9.75c.38-1.41,1.1-2.74,2.06-3.85l5.12-5.88c.2-.22.33-.49.4-.77l.03-.09,2.95.93c-.16.66-.53,1.38-1.05,1.97l-5.11,5.88c-.66.76-1.15,1.67-1.42,2.64l-.11.4,48.66,10.2.05-.42c.05-.33.07-.65.07-.98l3.09-.12c.02.52-.02,1.05-.09,1.55l-1.45,10.01c.59.84.87,1.89.64,2.98l-3.89,18.55c-.21.99-.79,1.84-1.64,2.39-.62.4-1.33.62-2.06.62-.26,0-.52-.03-.79-.08l-12.4-2.6-2.98,14.22c-.08.4-.32.76-.67.98-.25.17-.55.25-.85.25-.1,0-.21-.01-.31-.03ZM633.09,221.69l2.41.51,2.67-12.71-1.66-.34-1.23-.26-2.67,12.7.48.1Z"/>
      <path class="cls-2" d="M578.97,145.17c8.87-33.89,35.66-64.5,79.72-91.1l-22.26,106.21c-1.33-3.73-3.31-7.46-5.84-10.87-4.8-6.51-11.55-11.8-19.37-13.44-11.77-2.46-24.31,1.33-32.26,9.2Z"/>
      <path class="cls-6" d="M549.5,126.21c-14.08-2.95-26.89,1.21-32.62,10.61-.39.64-1.19.91-1.89.63s-1.11-1.01-.95-1.76c6.88-32.85,25.37-58.5,53.46-74.19,26.25-14.67,58.96-19.05,92.25-12.41l1.65-7.85c.18-.84,1-1.38,1.84-1.2s1.38,1,1.2,1.84l-1.65,7.85c33.16,7.29,61.35,24.42,79.51,48.4,19.41,25.65,26.05,56.58,19.16,89.42-.14.71-.79,1.23-1.51,1.23h-.06c-.76-.03-1.38-.6-1.48-1.35-1.48-10.91-11.54-19.86-25.61-22.81-5.18-1.09-10.55-.83-15.5.54l-.79-2.98c3.15-.88,6.44-1.33,9.75-1.33,2.4,0,4.8.24,7.17.73,12.51,2.63,22.14,9.72,26.18,18.84,4.58-29.51-2.19-57.21-19.79-80.43-17.28-22.82-43.93-39.31-75.36-46.71,25.34,37.42,37.85,72.55,37.33,104.75l-3.07-.07c.49-31.6-11.9-66.21-36.99-103.17l-22.25,106.12-3.03-.63,22.26-106.21c-44.06,26.6-70.86,57.21-79.72,91.1,7.95-7.86,20.49-11.66,32.26-9.2,7.82,1.65,14.57,6.93,19.37,13.44l-2.37,1.94c-1.67-2.29-3.59-4.4-5.73-6.23l-3.81,12.02-2.95-.93,4.14-13.11c-2.83-1.95-5.95-3.38-9.29-4.09-12.75-2.67-27.07,2.99-33.29,13.18-.34.56-1,.85-1.65.71s-1.13-.66-1.22-1.31c-1.64-12.02-12.12-22.7-24.93-25.4ZM518.59,129.92c7.38-6.74,19.03-9.38,31.54-6.75,11.77,2.46,21.73,11.11,25.73,21.66,8.93-34.76,36.09-66.06,80.82-93.17-31.71-5.82-62.7-1.41-87.67,12.54-25.43,14.2-42.76,36.83-50.42,65.71Z"/>
      <path class="cls-1" d="M569,64.21c24.97-13.95,55.96-18.36,87.67-12.54-44.74,27.1-71.89,58.41-80.82,93.17-3.99-10.55-13.96-19.2-25.73-21.66-12.51-2.63-24.16.01-31.54,6.75,7.66-28.88,24.99-51.51,50.42-65.71Z"/>
    </g>
  </g>
</svg>